<svg width="72" height="70" viewBox="0 0 72 70" fill="none" xmlns="http://www.w3.org/2000/svg">
<path d="M71.0963 31.0547H13.9576L48.1569 1.36719C48.7037 0.888672 48.3717 0 47.6491 0H39.0065C38.6256 0 38.2643 0.136718 37.9811 0.380859L1.07679 32.4023C0.738788 32.6953 0.467714 33.0575 0.281931 33.4644C0.0961492 33.8713 0 34.3134 0 34.7607C0 35.2081 0.0961492 35.6501 0.281931 36.057C0.467714 36.4639 0.738788 36.8262 1.07679 37.1191L38.1959 69.3359C38.3424 69.4629 38.5182 69.5312 38.7037 69.5312H47.6393C48.3619 69.5312 48.694 68.6328 48.1471 68.1641L13.9576 38.4766H71.0963C71.526 38.4766 71.8776 38.125 71.8776 37.6953V31.8359C71.8776 31.4062 71.526 31.0547 71.0963 31.0547Z" fill="white"/>
</svg>
