<svg
        width="311"
        height="422"
        viewBox="0 0 311 422"
        xmlns="http://www.w3.org/2000/svg"
      >
        <g >
          <path
            d="M29.6789 288.954C29.6789 288.954 48.2476 289.024 56.1397 290.215C64.0318 291.405 77.8838 285.723 77.8838 285.723C77.8838 285.723 71.6373 280.726 64.9379 280.955C58.2384 281.183 45.5221 287.775 48.9292 290.5C52.3363 293.225 83.9587 284.529 83.9587 284.529C83.9587 284.529 87.0174 251.586 75.6643 261.13C64.3112 270.675 57.886 226.886 63.5624 222.113C69.239 217.341 61.1905 197.379 72.9416 191.412C84.6929 185.446 117.088 177.613 118.055 186.303C119.022 194.993 78.5761 219.97 74.9404 210.542C71.3047 201.115 79.6156 188.454 87.2587 188.471C110.013 188.525 96.084 202.631 84.9433 200.767C74.8398 199.077 78.7159 195.586 78.7159 195.586C78.7159 195.586 46.6911 182.076 45.2141 178.1C43.7371 174.125 42.8826 165.609 47.9353 164.529C52.9883 163.448 83.0198 145.945 95.5116 151.281C108.003 156.617 120.61 167.633 120.61 167.633C120.61 167.633 93.5257 156.677 80.3553 163.836C67.1848 170.996 49.9267 178.61 46.6333 176.907C43.34 175.204 10.1859 188.729 9.16198 179.528C8.13798 170.327 10.5844 123.815 14.6133 113.534M29.6789 288.954C29.6213 293.347 46.9268 298.728 57.8599 297.603C87.2973 294.576 149.575 305.622 76.6003 317.251C55.2216 320.658 66.4378 318.9 63.3729 323.899C60.3081 328.898 66.0986 325.148 76.3779 338.493C86.6572 351.838 90.2878 337.979 98.2926 335.535C106.297 333.091 106.466 325.31 101.866 321.165C97.2665 317.019 84.4945 327.757 70.7551 329.805C57.0159 331.852 77.741 341.446 80.1822 340.139C82.623 338.833 83.5291 332.153 82.4533 345.728C81.3775 359.302 118.863 321.548 123.24 329.272C169.621 411.124 208.5 272.05 229.759 246.376C239.139 235.047 232.148 236.793 217.834 205.785C203.52 174.777 233.158 180.791 237.19 184.482C241.222 188.173 241.458 227.476 248.216 237.073C254.974 246.67 271.099 172.522 272.069 270.124C272.119 275.189 279.302 291.818 279.302 291.818C279.302 291.818 214.748 363.228 198.853 373.796C182.958 384.364 130.383 410.275 124.99 412.946C119.597 415.617 89.4001 432.262 77.3004 402.56C65.2006 372.858 80.8708 374.217 81.4926 361.211C82.1143 348.204 110.16 339.906 118.845 334.281C127.531 328.656 107.147 322.129 99.4242 317.814C91.7017 313.499 68.8798 322.251 63.2592 322.877C57.6385 323.503 59.2349 326.668 54.4656 325.647C49.6963 324.625 51.9591 314.303 54.5688 305.215C57.1785 296.127 72.8329 296.118 83.1651 291.345C93.4972 286.572 105.837 305.715 116.174 319.571C126.51 333.427 142.524 347.169 145.136 352.053C147.749 356.936 166.712 355.342 175.285 353.352C183.857 351.362 212.176 276.007 226.479 255.784C240.782 235.561 216.362 225.096 214.824 201.98C213.286 178.864 216.975 170.173 217.597 161.824C218.22 153.475 168.976 64.2579 119.806 54.7268C70.6359 45.1957 25.3435 112.34 23.2397 98.084C21.136 83.8285 61.0475 75.2433 90.7944 58.993C120.541 42.7425 127.073 54.9524 128.778 60.9724C130.483 66.9926 161.598 76.982 179.656 90.4957C197.713 104.009 209.642 132.178 218.273 135.357C226.904 138.535 227.362 156.597 227.194 169.035C227.026 181.474 246.621 213.446 250.028 216.172C253.436 218.897 267.114 197.709 258.255 192.485C249.397 187.262 258.423 180.047 265.178 175.672C271.934 171.297 283.122 184.541 275.914 197.764C270.002 208.61 261.895 210.82 255.935 217.694C249.975 224.567 282.569 223.614 291.367 214.354C300.165 205.094 288.11 164.477 277.036 153.291C265.963 142.104 253.31 166.644 252.516 168.802C251.722 170.961 254.563 182.547 252.294 190.044C250.024 197.542 239.46 181.641 239.46 181.641C239.46 181.641 242.861 156.423 241.839 151.879C240.816 147.336 256.142 131.656 263.92 131.825C271.698 131.994 284.419 144.032 290.211 149.597C296.004 155.161 297.204 193.84 295.559 202.303C293.915 210.766 295.947 225.216 303.273 230.61C310.598 236.004 307.027 198.438 308.895 173.39C310.764 148.343 287.071 70.2522 279.631 59.1784C272.191 48.1046 242.207 20.3944 220.8 9.32376C199.393 -1.74698 138.247 1.95827 120.079 6.05162C101.912 10.145 49.1734 38.271 42.8153 41.5667C36.457 44.8622 14.2618 63.894 13.0123 61.9632C11.7628 60.0324 5.12238 70.0868 2.28717 86.4449C-0.548041 102.803 18.6421 103.253 14.6133 113.534M29.6789 288.954C30.2596 244.676 33.8712 234.218 34.0977 231.605C34.3241 228.993 40.2262 216.95 37.2721 208.999C34.318 201.049 30.7982 201.958 23.7005 198.609C16.6028 195.259 13.3715 217.354 11.2636 184.469C9.15559 151.584 19.8981 206.277 25.5757 206.162C31.2532 206.047 33.2384 195.994 31.2533 206.047C29.2684 216.1 31.0848 213.828 33.1294 218.258C35.1743 222.688 38.1843 226.492 35.8 228.31C33.4158 230.128 14.6133 113.534 14.6133 113.534"
            stroke="white"
            stroke-width="3"
            fill="transparent"
          />
        </g>
      </svg>