<svg width="329" height="285" viewBox="0 0 329 285" fill="none" xmlns="http://www.w3.org/2000/svg">
<path d="M28.8528 0.0544382L288.427 17.3576C293.261 17.6912 308.437 26.5177 310.515 45.6638L327.873 206.046C328.775 214.413 328.086 233.958 311.718 237.004L59.1224 283.932C57.5255 284.227 55.9013 284.375 54.299 284.375C48.1904 284.375 26.1841 279.464 23.8982 258.163L0.256744 39.7849C-1.96357 19.3701 10.4396 -1.19791 28.8528 0.0544382ZM287.738 27.1412L28.1911 9.83256C24.9242 9.58061 21.6629 10.3859 18.8888 12.1294L194.228 170.969L292.605 29.5146C290.97 28.0873 289.275 27.2451 287.738 27.1412ZM317.986 207.079L300.628 46.7029C300.311 43.8044 299.583 40.9333 298.517 38.3083L234.5 128.964L317.871 214.632C318.222 212.129 318.26 209.592 317.986 207.079ZM57.2794 274.29L309.875 227.368C311.265 227.111 312.643 226.171 313.873 224.694L233.98 142.592L228.807 137.271L196.202 185.79L145.354 141.345L128.975 163.187L46.7958 272.754C50.0255 274.407 53.711 274.948 57.2794 274.29ZM10.1388 33.8404L33.7802 252.218C34.3544 257.534 36.2794 262.456 39.2271 266.339L137.943 134.728L12.3864 19.556C10.3794 23.6412 9.57551 28.6177 10.1388 33.8404Z" fill="white"/>
</svg>
