<svg width="200" height="201" viewBox="0 0 200 201" fill="none" xmlns="http://www.w3.org/2000/svg">
<path d="M36.8876 170.506L22.8501 13H177.15L163.094 170.481L99.9063 188L36.8876 170.506Z" fill="#1572B6"/>
<path d="M100 174.613L151.063 160.456L163.075 25.8813H100V174.613Z" fill="#33A9DC"/>
<path d="M100 82.9437H125.562L127.325 63.1625H100V43.8438H148.438L147.975 49.025L143.231 102.262H100V82.9437Z" fill="white"/>
<path d="M100.119 133.112L100.031 133.137L78.5187 127.325L77.1438 111.919H57.75L60.4563 142.25L100.025 153.237L100.119 153.212V133.112Z" fill="#EBEBEB"/>
<path d="M123.919 101.444L121.594 127.313L100.05 133.125V153.225L139.65 142.25L139.944 138.988L143.3 101.444H123.919Z" fill="white"/>
<path d="M100.069 43.8438V63.1625H53.4063L53.0188 58.8188L52.1376 49.025L51.675 43.8438H100.069Z" fill="#EBEBEB"/>
<path d="M100 82.9438V102.263H78.7563L78.3687 97.9188L77.4938 88.1251L77.0312 82.9438H100Z" fill="#EBEBEB"/>
</svg>
