<svg width="50" height="50" viewBox="0 0 50 50" fill="none" xmlns="http://www.w3.org/2000/svg">
<path fill-rule="evenodd" clip-rule="evenodd" d="M25 0.345367C11.1875 0.345367 0 11.5329 0 25.3454C0 36.4079 7.15625 45.7516 17.0937 49.0641C18.3437 49.2829 18.8125 48.5329 18.8125 47.8766C18.8125 47.2829 18.7812 45.3141 18.7812 43.2204C12.5 44.3766 10.875 41.6891 10.375 40.2829C10.0937 39.5641 8.875 37.3454 7.8125 36.7516C6.9375 36.2829 5.6875 35.1266 7.78125 35.0954C9.75 35.0641 11.1562 36.9079 11.625 37.6579C13.875 41.4391 17.4687 40.3766 18.9062 39.7204C19.125 38.0954 19.7812 37.0016 20.5 36.3766C14.9375 35.7516 9.125 33.5954 9.125 24.0329C9.125 21.3141 10.0937 19.0641 11.6875 17.3141C11.4375 16.6891 10.5625 14.1266 11.9375 10.6891C11.9375 10.6891 14.0312 10.0329 18.8125 13.2516C20.8125 12.6891 22.9375 12.4079 25.0625 12.4079C27.1875 12.4079 29.3125 12.6891 31.3125 13.2516C36.0937 10.0016 38.1875 10.6891 38.1875 10.6891C39.5625 14.1266 38.6875 16.6891 38.4375 17.3141C40.0313 19.0641 41 21.2829 41 24.0329C41 33.6266 35.1562 35.7516 29.5937 36.3766C30.5 37.1579 31.2812 38.6579 31.2812 41.0016C31.2812 44.3454 31.25 47.0329 31.25 47.8766C31.25 48.5329 31.7187 49.3141 32.9687 49.0641C37.9316 47.3885 42.2441 44.1989 45.2993 39.944C48.3545 35.6892 49.9985 30.5835 50 25.3454C50 11.5329 38.8125 0.345367 25 0.345367Z" fill="#ff7a00"/>
</svg>
