<svg width="200" height="201" viewBox="0 0 200 201" fill="none" xmlns="http://www.w3.org/2000/svg">
<path d="M36.8875 170.506L22.8438 13H177.156L163.094 170.481L99.9062 188L36.8875 170.506Z" fill="#E44F26"/>
<path d="M100 174.613L151.063 160.456L163.075 25.8813H100V174.613Z" fill="#F1662A"/>
<path d="M100 84.2938H74.4375L72.675 64.5126H100V45.1938H51.5625L52.025 50.3813L56.7688 103.613H100V84.2938Z" fill="#EBEBEB"/>
<path d="M100 134.462L99.9126 134.487L78.4001 128.681L77.0251 113.275H57.6313L60.3376 143.6L99.9126 154.587L100 154.562V134.462Z" fill="#EBEBEB"/>
<path d="M99.9312 84.2937V103.612H123.719L121.481 128.669L99.9312 134.481V154.581L139.537 143.6L139.825 140.337L144.362 89.4812L144.837 84.2937H99.9312Z" fill="white"/>
<path d="M99.9312 45.1938V64.5126H146.594L146.981 60.1751L147.862 50.3813L148.325 45.1938H99.9312Z" fill="white"/>
</svg>
