<svg width="475" height="108" viewBox="0 0 475 108" fill="none" xmlns="http://www.w3.org/2000/svg">
<path fill-rule="evenodd" clip-rule="evenodd" d="M454.218 7.96094L474.12 8.07057C474.12 8.07057 437.119 58.2099 434.097 62.2962C433.116 63.6193 431.626 65.0464 430.869 66.8154C428.958 71.2622 426.996 81.0171 426.996 81.0171L408.786 81.1082C408.786 81.1082 411.62 70.9398 411.503 65.524C411.4 60.7929 408.985 56.0673 407.63 51.3223C406.261 46.5187 404.401 37.1197 404.401 37.1197H423.123L425.705 47.4488L454.218 7.96094Z" fill="white"/>
<path fill-rule="evenodd" clip-rule="evenodd" d="M416.532 18.5354C420.205 20.7495 422.459 32.9638 422.459 32.9638C422.459 32.9638 403.241 33.2472 392.783 33.2472H383.745L372.771 81.0172H355.987C355.987 81.0172 366.432 29.1033 368.898 19.6913C369.697 16.6437 374.372 17.1668 382.267 17.1668H394.874C403.015 17.1668 412.531 16.1271 416.532 18.5354Z" fill="white"/>
<path fill-rule="evenodd" clip-rule="evenodd" d="M338.395 41.8006C338.395 41.8006 338.918 38.7344 336.621 35.1833C334.657 32.1562 332.845 31.452 327.68 31.2903C313.097 30.8322 313.38 41.6389 313.38 41.6389L338.395 41.8006ZM354.211 29.4246C356.348 37.1336 352.274 55.2468 352.274 55.2468C352.274 55.2468 331.003 54.8919 319.352 55.2468C315.729 55.3574 311.393 54.8529 310.314 56.5383C308.797 58.9002 310.869 62.5358 312.625 64.0717C314.646 65.8398 318.583 66.0414 319.998 66.2207C329.454 67.4221 349.246 66.5311 349.246 66.5311L345.818 81.713C345.818 81.713 317.849 83.116 303.859 79.7767C301.096 79.1189 298.507 77.7893 296.757 75.9041C296.28 75.3884 295.865 74.6851 295.414 74.0774C295.053 73.5924 294.002 71.999 293.53 70.7391C290.334 62.2246 293.904 45.9129 297.403 37.1716C297.809 36.1589 298.319 34.8739 298.856 33.7822C299.527 32.421 300.095 30.8843 300.631 30.0703C300.991 29.5092 301.438 29.1477 301.813 28.6181C302.245 27.9919 302.747 27.3852 303.213 26.8435C304.504 25.3457 305.97 24.2865 307.732 22.9709C313.561 18.6059 324.109 15.2173 336.781 16.5144C341.552 17.005 348.758 18.709 352.274 23.6157C353.217 24.9258 353.682 27.5273 354.211 29.4255V29.4246Z" fill="white"/>
<path fill-rule="evenodd" clip-rule="evenodd" d="M277.23 17.1072L293.505 17.0115C293.505 17.0115 284.435 60.0365 279.812 81.0171H261.09C248.006 81.0171 236.354 82.6374 231.396 73.27C226.587 64.1748 231.177 49.2177 233.333 39.0559C234.857 31.8645 238.066 17.1657 238.066 17.1657L254.927 17.0115C254.927 17.0115 250.163 39.8958 248.18 51.3222C247.47 55.415 246.006 59.269 247.535 62.2952C248.988 65.1755 251.021 65.3817 257.218 65.5239C259.181 65.5703 265.611 65.5239 265.611 65.5239L277.23 17.1072Z" fill="white"/>
<path fill-rule="evenodd" clip-rule="evenodd" d="M201.056 48.0935C202.76 42.0394 205.245 35.4742 204.929 30.0183C204.588 24.1834 199.695 18.8707 196.538 17.7539C187.029 14.397 178.127 19.09 174.589 22.918C170.012 27.8758 168.462 33.667 166.842 41.6398C165.636 47.5584 164.647 53.8067 166.842 58.4226C170.727 66.5831 182.845 64.8011 195.892 64.8791C197.828 59.689 199.429 53.8597 201.056 48.0935ZM223.65 24.2094C225.509 37.7264 218.377 52.6463 213.464 65.6206C218.473 66.0731 222.863 65.5509 223.179 65.9244C223.508 66.4085 219.822 81.411 218.537 81.4501C214.561 81.5532 201.386 81.6628 195.892 81.6628C177.964 81.6628 161.194 82.8308 152.641 73.9167C149.168 70.295 146.766 64.0838 146.185 59.7141C145.216 52.4196 146.43 44.3882 148.122 37.7663C149.652 31.7874 151.613 26.1457 154.577 20.9807C162.111 7.83176 175.215 -1.9287 197.182 0.324426C201.443 0.762973 207.563 2.62866 211.385 4.84276C211.649 4.99793 212.573 5.73379 212.785 5.86294C217.95 9.14926 222.656 16.992 223.65 24.2094Z" fill="white"/>
<path fill-rule="evenodd" clip-rule="evenodd" d="M144.332 17.1853C143.248 22.1236 142.163 27.7216 141.021 32.6013H122.945C124.346 27.192 125.418 21.8142 126.819 17.1082C132.603 17.1082 137.98 17.1853 144.333 17.1853" fill="white"/>
<path fill-rule="evenodd" clip-rule="evenodd" d="M122.3 37.1204H139.73C137.451 49.7342 132.938 70.0811 129.401 84.2447C127.187 93.1085 125.708 99.5762 119.717 104.256C119.181 104.676 118.872 104.476 118.426 104.902C117.322 105.955 112.216 107.175 109.389 107.484C104.793 107.982 99.5963 107.549 93.9473 107.433C95.4255 102.03 97.0979 95.5419 98.4154 90.6993C112.185 92.3661 112.533 79.351 115.199 66.8152C116.741 59.5717 121.416 40.0248 122.3 37.1204Z" fill="white"/>
<path fill-rule="evenodd" clip-rule="evenodd" d="M81.6297 70.0434L81.2562 71.0115C74.8917 83.406 63.6131 91.01 47.5262 91.3454C40.0059 91.5006 32.8404 89.5708 28.1595 87.4728C18.0581 82.9341 9.5612 74.5171 4.92115 65.5241C-1.7351 52.6325 -2.93553 34.6994 10.9047 21.3052C11.1184 21.3052 9.22579 24.2096 9.43949 24.2096L9.05855 25.4491C-0.914683 56.6733 29.8124 83.4321 59.6819 80.3715C66.8604 79.6357 76.0141 75.7045 81.6297 70.0434Z" fill="#21609B"/>
<path fill-rule="evenodd" clip-rule="evenodd" d="M63.5544 57.1324C71.0692 57.1835 78.9184 53.6714 83.5668 48.7405C79.5 59.0631 67.7252 65.698 51.9357 63.5879C38.7142 61.8189 26.1199 48.5147 24.8229 35.1837C23.8742 25.4817 27.2553 19.6914 32.8273 12.6672C30.891 16.341 30.1672 19.1739 29.987 20.981C27.8704 41.9681 46.7521 57.0218 63.5544 57.1324Z" fill="#21609B"/>
<path fill-rule="evenodd" clip-rule="evenodd" d="M82.8113 31.0645C81.6434 33.7441 74.9175 38.8041 71.947 39.4369C60.1852 41.9427 52.6528 36.3652 48.7068 30.0183C48.1205 29.0706 47.0363 26.4821 46.8421 25.8233C45.3118 20.6202 46.0151 12.7505 50.5799 8.67725C49.2048 12.5508 49.0041 17.0496 49.7279 19.9745C50.1665 21.7426 51.5026 24.8301 52.8396 26.772C55.272 30.3091 56.8153 31.1686 59.9399 33.0473C61.3476 33.8928 62.8574 34.571 63.5096 34.7569C66.4726 35.6293 72.7284 37.927 82.8122 31.0645" fill="#21609B"/>
</svg>
