<svg width="200" height="201" viewBox="0 0 200 201" fill="none" xmlns="http://www.w3.org/2000/svg">
<g clip-path="url(#clip0_188_94)">
<path d="M0 0.5H200V200.5H0V0.5Z" fill="#F7DF1E"/>
<path d="M52.5875 167.634L67.8921 158.372C70.8453 163.607 73.5312 168.037 79.9742 168.037C86.15 168.037 90.0445 165.621 90.0445 156.224V92.3196H108.839V156.49C108.839 175.956 97.4281 184.817 80.7796 184.817C65.7445 184.817 57.0171 177.031 52.5867 167.633" fill="black"/>
<path d="M119.048 165.62L134.351 156.76C138.38 163.339 143.616 168.172 152.878 168.172C160.666 168.172 165.632 164.278 165.632 158.908C165.632 152.464 160.53 150.181 151.938 146.424L147.241 144.408C133.68 138.637 124.686 131.387 124.686 116.082C124.686 101.985 135.426 91.2446 152.208 91.2446C164.156 91.2446 172.748 95.4071 178.923 106.281L164.289 115.68C161.066 109.907 157.577 107.625 152.207 107.625C146.702 107.625 143.212 111.116 143.212 115.68C143.212 121.318 146.702 123.602 154.757 127.092L159.455 129.106C175.432 135.953 184.427 142.934 184.427 158.64C184.427 175.557 171.136 184.82 153.28 184.82C135.828 184.82 124.551 176.496 119.047 165.621" fill="black"/>
</g>
<defs>
<clipPath id="clip0_188_94">
<rect width="200" height="200" fill="white" transform="translate(0 0.5)"/>
</clipPath>
</defs>
</svg>
