<svg width="201" height="200" viewBox="0 0 201 200" fill="none" xmlns="http://www.w3.org/2000/svg">
<path d="M163.427 109.825C157.932 109.832 152.51 111.089 147.571 113.5C146.025 110.934 144.831 108.172 144.021 105.287C143.556 103.027 143.448 100.707 143.702 98.4125C144.237 95.888 144.93 93.3997 145.777 90.9625C145.746 90.6437 145.396 89.1375 141.877 89.0875C138.359 89.0375 135.327 89.7562 135.002 90.6875C134.391 92.3884 133.9 94.1302 133.534 95.9C130.621 103.084 127.037 109.978 122.827 116.487C120.469 112.621 119.499 108.067 120.077 103.575C120.612 101.05 121.305 98.5622 122.152 96.125C122.121 95.8062 121.771 94.3 118.252 94.25C114.734 94.2 111.702 94.9187 111.377 95.85C111.052 96.7812 110.64 98.975 109.909 101.062C109.177 103.15 100.64 122.225 98.4024 127.144C97.2524 129.644 96.2586 131.681 95.5586 133.056C95.5255 133.146 95.4836 133.231 95.4336 133.312L94.4774 135.137V135.169C93.9961 136.031 93.4836 136.831 93.2274 136.831C92.7804 135.046 92.802 133.175 93.2899 131.4C94.5399 124.781 97.6024 114.494 97.5711 114.137C97.5711 113.944 98.1461 112.156 95.5899 111.231C94.997 110.949 94.3313 110.858 93.6843 110.97C93.0374 111.082 92.441 111.391 91.9774 111.856C91.7524 111.856 91.5961 112.4 91.5961 112.4C91.5961 112.4 94.3774 100.831 86.2899 100.831C83.1405 101.465 80.1495 102.722 77.493 104.528C74.8365 106.335 72.5681 108.654 70.8211 111.35C68.6461 112.531 64.0149 115.056 59.0586 117.775C57.1836 118.831 55.2211 119.887 53.4024 120.9C53.2774 120.775 53.1461 120.612 53.0211 120.487C43.1774 110 25.0836 102.6 25.8649 88.5687C26.1524 83.4562 27.9086 70.0312 60.6086 53.725C87.5211 40.4625 108.94 44.1375 112.646 52.2875C117.952 63.925 101.171 85.5312 73.3649 88.6625C70.2887 89.2866 67.1116 89.2113 64.0684 88.4421C61.0252 87.6729 58.1939 86.2295 55.7836 84.2187C54.3149 82.6187 54.0899 82.525 53.5461 82.8437C52.6524 83.325 53.2274 84.7625 53.5461 85.5937C54.6069 87.5134 56.0417 89.201 57.7657 90.5568C59.4897 91.9126 61.468 92.9091 63.5836 93.4875C74.5226 95.8513 85.9277 94.7211 96.1899 90.2562C113.065 83.7375 126.19 65.6125 122.34 50.4312C118.471 35.025 92.9024 29.9437 68.7024 38.5562C53.5446 43.6567 39.5388 51.6906 27.4836 62.2C14.1524 74.6687 12.0461 85.5 12.9086 90.0437C16.0336 106.156 38.2274 116.637 47.1086 124.419C46.7074 124.647 46.3032 124.87 45.8961 125.087C41.4524 127.294 24.5149 136.15 20.2711 145.512C15.4774 156.137 21.0399 163.731 24.7149 164.756C30.2524 166.082 36.0657 165.645 41.3431 163.507C46.6205 161.369 51.0987 157.637 54.1524 152.831C56.7528 148.845 58.3512 144.289 58.8115 139.552C59.2718 134.815 58.5804 130.037 56.7961 125.625C56.766 125.554 56.7237 125.488 56.6711 125.431L60.1524 123.387C62.2677 122.137 64.4099 120.933 66.5774 119.775C65.2763 123.528 64.5125 127.446 64.3086 131.412C63.8669 137.492 65.7275 143.516 69.5211 148.287C70.0984 148.784 70.7685 149.162 71.4927 149.398C72.2169 149.634 72.9807 149.724 73.7399 149.662C77.4899 149.662 79.2086 146.537 81.0899 142.825C83.3899 138.287 85.4649 133.012 85.4649 133.012C85.4649 133.012 82.8774 147.269 89.9086 147.269C92.4649 147.269 95.0524 143.944 96.2086 142.269V142.3L96.4024 141.981L96.8149 141.312V141.25C97.8399 139.462 100.14 135.4 103.559 128.656C107.971 119.962 112.221 109.094 112.221 109.094C112.631 111.482 113.197 113.842 113.915 116.156C114.944 118.962 116.162 121.695 117.559 124.337C116.534 125.775 115.896 126.575 115.896 126.575L115.927 126.606C115.096 127.694 114.202 128.875 113.209 130.025C110.252 133.276 107.509 136.714 104.996 140.319C104.623 140.924 104.494 141.649 104.637 142.346C104.78 143.043 105.183 143.659 105.765 144.069C107.081 144.753 108.58 145.001 110.046 144.775C112.255 144.65 114.427 144.154 116.471 143.306C118.446 142.611 120.31 141.632 122.002 140.4C123.748 139.191 125.152 137.553 126.082 135.644C127.011 133.735 127.433 131.619 127.309 129.5C127.112 126.83 126.43 124.219 125.296 121.794C125.615 121.344 125.921 120.9 126.221 120.45C129.774 115.146 132.977 109.616 135.809 103.894C136.219 106.282 136.784 108.642 137.502 110.956C138.351 113.381 139.397 115.732 140.627 117.987C136.54 121.133 133.32 125.267 131.271 130C129.259 135.819 130.821 138.437 133.771 139.044C135.385 139.155 136.999 138.824 138.44 138.087C140.558 137.391 142.553 136.366 144.352 135.05C146.25 133.93 147.839 132.356 148.977 130.47C150.114 128.584 150.766 126.444 150.871 124.244C150.729 122.047 150.233 119.888 149.402 117.85C154.797 115.743 160.646 115.071 166.377 115.9C181.59 117.687 184.596 127.181 184.021 131.181C183.751 132.599 183.181 133.943 182.349 135.123C181.517 136.302 180.442 137.289 179.196 138.019C178.14 138.687 177.79 138.912 177.884 139.394C178.009 140.1 178.509 140.062 179.415 139.937C181.708 139.225 183.731 137.834 185.217 135.948C186.703 134.063 187.583 131.771 187.74 129.375C188.221 120 179.271 109.719 163.446 109.812L163.427 109.825ZM46.0524 149.375C41.0024 154.875 33.9711 156.95 30.9336 155.194C27.6711 153.319 28.9524 145.194 35.1524 139.369C38.8302 136.058 42.8054 133.093 47.0274 130.512C47.7649 130.062 48.8524 129.425 50.1524 128.637L50.5024 128.444L51.2711 127.962C52.3788 131.674 52.4792 135.613 51.5621 139.376C50.645 143.138 48.7434 146.59 46.0524 149.375ZM82.8086 124.375C81.0524 128.656 77.3774 139.625 75.1399 139.012C73.2211 138.5 72.0149 130.187 74.7586 121.975C76.144 118.022 78.1619 114.319 80.7336 111.012C83.4836 107.944 86.5211 106.919 87.2524 108.169C86.5853 113.762 85.0875 119.224 82.8086 124.375ZM113.14 138.887C112.402 139.269 111.702 139.512 111.384 139.337C111.159 139.212 111.702 138.712 111.702 138.712C111.702 138.712 115.509 134.619 117.009 132.769C117.871 131.681 118.884 130.406 119.984 128.962V129.375C119.984 134.262 115.252 137.556 113.146 138.9L113.14 138.887ZM136.54 133.55C135.996 133.169 136.09 131.887 137.915 127.894C139.184 125.329 140.957 123.046 143.127 121.181C143.46 122.127 143.633 123.122 143.64 124.125C143.665 126.26 142.982 128.342 141.699 130.048C140.416 131.754 138.604 132.988 136.546 133.556L136.54 133.55Z" fill="#CD6799"/>
</svg>
