<svg width="188" height="117" viewBox="0 0 188 117" fill="none" xmlns="http://www.w3.org/2000/svg">
<path class='filled' d="M25 0.5L30.6129 17.7746H48.7764L34.0818 28.4508L39.6946 45.7254L25 35.0491L10.3054 45.7254L15.9182 28.4508L1.22359 17.7746H19.3871L25 0.5Z" fill="#FF7A00"/>
<path class='filled' d="M94 0.5L99.6129 17.7746H117.776L103.082 28.4508L108.695 45.7254L94 35.0491L79.3054 45.7254L84.9182 28.4508L70.2236 17.7746H88.3871L94 0.5Z" fill="#FF7A00"/>
<path class='filled' d="M163 0.5L168.613 17.7746H186.776L172.082 28.4508L177.695 45.7254L163 35.0491L148.305 45.7254L153.918 28.4508L139.224 17.7746H157.387L163 0.5Z" fill="#FF7A00"/>
<path class='filled' d="M65 71.3541L69.1863 84.2381L69.523 85.2746H70.6129H84.1599L73.2001 93.2373L72.3184 93.8779L72.6552 94.9144L76.8415 107.798L65.8817 99.8356L65 99.195L64.1183 99.8356L53.1585 107.798L57.3448 94.9144L57.6816 93.8779L56.7999 93.2373L45.8401 85.2746H59.3871H60.477L60.8137 84.2381L65 71.3541Z" stroke="#FF7A00" stroke-width="3"/>
<path class='filled' d="M123 71.3541L127.186 84.2381L127.523 85.2746H128.613H142.16L131.2 93.2373L130.318 93.8779L130.655 94.9144L134.841 107.798L123.882 99.8356L123 99.195L122.118 99.8356L111.159 107.798L115.345 94.9144L115.682 93.8779L114.8 93.2373L103.84 85.2746H117.387H118.477L118.814 84.2381L123 71.3541Z" stroke="#FF7A00" stroke-width="3"/>
</svg>
